<?xml version="1.0" encoding="UTF-8"?>
<svg id="Calque_2" data-name="Calque 2" xmlns="http://www.w3.org/2000/svg" xmlns:xlink="http://www.w3.org/1999/xlink" viewBox="0 0 22.68 22.68">
  <defs>
    <style>
      .cls-1 {
        stroke: #1d1d1b;
        stroke-miterlimit: 10;
        stroke-width: .75px;
      }

      .cls-1, .cls-2, .cls-3 {
        fill: none;
      }

      .cls-1, .cls-3 {
        stroke-linecap: round;
      }

      .cls-4 {
        fill: #9754b8;
      }

      .cls-3 {
        stroke: #005eb8;
        stroke-linejoin: round;
        stroke-width: .68px;
      }

      .cls-5 {
        clip-path: url(#clippath);
      }
    </style>
    <clipPath id="clippath">
      <rect class="cls-2" x="0" y="0" width="22.68" height="22.68"/>
    </clipPath>
  </defs>
  <g id="Calque_1-2" data-name="Calque 1">
    <g class="cls-5">
      <path class="cls-3" d="M2.78,6.29l-1.07-.3c-.16-.05-.32.04-.37.2-.45,1.4-2.26,7.84.5,13.39.04.09.13.15.23.17l1.34.18"/>
      <path class="cls-1" d="M7.29,9.66l5.42-.41M6.78,7.39l8.64-.65M13.4,2.31l-.51.03M9.11,2.47l-.51.03M5.11,2.74l-.43.03c-.24.01-.43.21-.43.44.02,2.26.46,13.18,6.34,18.95.11.11.28.16.44.14l10.9-1.73c.32-.05.48-.39.31-.65-1.13-1.67-4.37-7.23-5.27-17.4-.02-.25-.24-.44-.5-.43l-.3.02"/>
      <path class="cls-4" d="M5.82,19.1c-.6.08-1.03.63-.97,1.24.06.6.6,1.03,1.19.95.6-.08,1.03-.63.97-1.24-.06-.61-.6-1.03-1.2-.95"/>
      <path class="cls-1" d="M13.89,1.09c.15-.41.41-.69.74-.72.53-.04,1.02.64,1.08,1.52.06.88-.32,1.62-.85,1.66M9.61,1.22c.15-.41.41-.69.74-.72.54-.04,1.02.64,1.08,1.52.06.88-.32,1.62-.85,1.66M5.28,1.48c.15-.41.41-.69.74-.72.53-.04,1.02.64,1.08,1.52.06.88-.32,1.62-.85,1.66"/>
    </g>
  </g>
</svg>